<svg width="25" height="25" viewBox="0 0 25 25" fill="none" xmlns="http://www.w3.org/2000/svg">
<path d="M22.5 22.8643H5.5C3.43 22.8643 1.75 21.1843 1.75 19.1143V2.11426C1.75 1.70426 2.09 1.36426 2.5 1.36426C2.91 1.36426 3.25 1.70426 3.25 2.11426V19.1143C3.25 20.3543 4.26 21.3643 5.5 21.3643H22.5C22.91 21.3643 23.25 21.7043 23.25 22.1143C23.25 22.5243 22.91 22.8643 22.5 22.8643Z" fill="#2C7940"/>
<path d="M21.2375 17.6118C21.0475 17.6118 20.8575 17.5418 20.7075 17.3918L17.1575 13.8418L16.0675 15.4818C15.9475 15.6718 15.7375 15.7918 15.5175 15.8118C15.2875 15.8318 15.0675 15.7518 14.9175 15.5918L11.7175 12.3918C11.4275 12.1018 11.4275 11.6218 11.7175 11.3318C12.0075 11.0418 12.4875 11.0418 12.7775 11.3318L15.3275 13.8818L16.4175 12.2418C16.5375 12.0618 16.7375 11.9418 16.9675 11.9118C17.1975 11.8918 17.4175 11.9718 17.5675 12.1318L21.7675 16.3318C22.0575 16.6218 22.0575 17.1018 21.7675 17.3918C21.6175 17.5418 21.4275 17.6118 21.2375 17.6118Z" fill="#2C7940"/>
<path d="M5.99905 18.1143C6.12589 18.1143 6.25274 18.0388 6.35289 17.8772L8.72294 14.0527L9.45064 15.8195C9.53076 16.0242 9.67096 16.1535 9.81784 16.1751C9.97139 16.1966 10.1183 16.1104 10.2184 15.938L12.3548 12.4906C12.5484 12.1781 12.5484 11.661 12.3548 11.3486C12.1612 11.0362 11.8407 11.0362 11.6471 11.3486L9.94468 14.0958L9.21698 12.329C9.13686 12.135 9.00334 12.0058 8.84979 11.9734C8.69623 11.9519 8.54936 12.0381 8.44921 12.2104L5.64521 16.7353C5.4516 17.0477 5.4516 17.5648 5.64521 17.8772C5.74535 18.0388 5.8722 18.1143 5.99905 18.1143Z" fill="#2C7940"/>
<path d="M6.5 17.6143H21.5" stroke="#2C7940" stroke-width="1.25" stroke-linecap="round"/>
</svg>
