<svg width="24" height="25" viewBox="0 0 24 25" fill="none" xmlns="http://www.w3.org/2000/svg">
<path d="M22 22.8643H2C1.59 22.8643 1.25 22.5243 1.25 22.1143C1.25 21.7043 1.59 21.3643 2 21.3643H22C22.41 21.3643 22.75 21.7043 22.75 22.1143C22.75 22.5243 22.41 22.8643 22 22.8643Z" fill="#2C7940"/>
<path d="M14.25 22.8643H9.75C9.34 22.8643 9 22.5243 9 22.1143V4.11426C9 2.39426 9.95 1.36426 11.55 1.36426H12.45C14.05 1.36426 15 2.39426 15 4.11426V22.1143C15 22.5243 14.66 22.8643 14.25 22.8643ZM10.5 21.3643H13.5V4.11426C13.5 2.96426 12.96 2.86426 12.45 2.86426H11.55C11.04 2.86426 10.5 2.96426 10.5 4.11426V21.3643Z" fill="#2C7940"/>
<path d="M7 22.8643H3C2.59 22.8643 2.25 22.5243 2.25 22.1143V10.1143C2.25 8.39426 3.13 7.36426 4.6 7.36426H5.4C6.87 7.36426 7.75 8.39426 7.75 10.1143V22.1143C7.75 22.5243 7.41 22.8643 7 22.8643ZM3.75 21.3643H6.25V10.1143C6.25 8.86426 5.7 8.86426 5.4 8.86426H4.6C4.3 8.86426 3.75 8.86426 3.75 10.1143V21.3643Z" fill="#2C7940"/>
<path d="M21 22.8643H17C16.59 22.8643 16.25 22.5243 16.25 22.1143V15.1143C16.25 13.3943 17.13 12.3643 18.6 12.3643H19.4C20.87 12.3643 21.75 13.3943 21.75 15.1143V22.1143C21.75 22.5243 21.41 22.8643 21 22.8643ZM17.75 21.3643H20.25V15.1143C20.25 13.8643 19.7 13.8643 19.4 13.8643H18.6C18.3 13.8643 17.75 13.8643 17.75 15.1143V21.3643Z" fill="#2C7940"/>
</svg>
