<svg width="24" height="25" viewBox="0 0 24 25" fill="none" xmlns="http://www.w3.org/2000/svg">
<path d="M22 22.8643H5C2.93 22.8643 1.25 21.1843 1.25 19.1143V2.11426C1.25 1.70426 1.59 1.36426 2 1.36426C2.41 1.36426 2.75 1.70426 2.75 2.11426V19.1143C2.75 20.3543 3.76 21.3643 5 21.3643H22C22.41 21.3643 22.75 21.7043 22.75 22.1143C22.75 22.5243 22.41 22.8643 22 22.8643Z" fill="#2C7940"/>
<path d="M4.99982 17.8641C4.82982 17.8641 4.64982 17.8041 4.50982 17.6841C4.19982 17.4141 4.15982 16.9441 4.42982 16.6241L9.01982 11.2641C9.51982 10.6841 10.2398 10.3341 10.9998 10.3041C11.7598 10.2841 12.5098 10.5641 13.0498 11.1041L13.9998 12.0541C14.2498 12.3041 14.5798 12.4241 14.9298 12.4241C15.2798 12.4141 15.5998 12.2541 15.8298 11.9841L20.4198 6.62409C20.6898 6.31409 21.1598 6.27407 21.4798 6.54407C21.7898 6.81407 21.8298 7.28407 21.5598 7.60407L16.9698 12.9641C16.4698 13.5441 15.7498 13.8941 14.9898 13.9241C14.2298 13.9441 13.4798 13.6641 12.9398 13.1241L11.9998 12.1741C11.7498 11.9241 11.4198 11.7941 11.0698 11.8041C10.7198 11.8141 10.3998 11.9741 10.1698 12.2441L5.57982 17.6041C5.41982 17.7741 5.20982 17.8641 4.99982 17.8641Z" fill="#2C7940"/>
</svg>
